:SAMPLES-PER-SECOND 30
:FULLY-SPECIFIED
:DEGREES
318
root  -3.90007 34.4793 -8.4651 13.3665 -42.7508 -0.332227
RightUpLeg  -19.6142 -11.2317 -0.218321
RightLeg  14.7415 -4.32165 -0.843115
RightFoot  3.67479 0.0167137 -0.0353246
RightToes  -24.8201 -0.109687 -0.212695
Spine  1.78626 2.85501 -0.669185
Spine1  3.34881 6.20329 -0.92109
HEad  -43.2094 -2.09881 1.05548
LeftShoulder1  -1.94126e-019 -3.10601e-018 -2.51263e-017
LeftArm  -20.19 14.4738 -79.7013
LeftForeArm  10.8561 -51.2754 -13.1857
LeftHand  -0.161989 3.44776 8.97752
RightShoulder  -4.96962e-017 0 -2.36833e-017
RightArm  -7.00397 2.36616 79.3807
RightForeArm  50.7386 49.7768 9.38461
RightHand  -0.858955 -1.52738 -25.5248
LeftUpLeg  -23.7364 2.863 0.402083
LeftLeg  13.7607 10.8248 1.91002
LeftFoot  7.97388 -0.111914 1.76715
LeftToes  -22.0059 1.34695e-006 1.12385e-007
319
root  -4.04609 34.4841 -8.31335 12.5056 -42.5415 -0.583577
RightUpLeg  -17.9781 -11.3324 -0.275259
RightLeg  14.3319 -4.42004 -0.829426
RightFoot  3.55186 0.0168717 -0.0368026
RightToes  -24.622 -0.109969 -0.212787
Spine  1.6496 2.79672 -0.516561
Spine1  3.12496 6.07763 -0.625283
HEad  -41.3223 -1.39236 -0.209225
LeftShoulder1  -1.94126e-019 -3.10601e-018 -2.51263e-017
LeftArm  -15.0489 11.9683 -78.1788
LeftForeArm  20.3811 -64.6222 -22.4664
LeftHand  -0.228314 0.911627 5.86493
RightShoulder  -4.96962e-017 0 -2.36833e-017
RightArm  -7.61074 -0.526565 79.0954
RightForeArm  49.8812 52.4155 10.5474
RightHand  -0.899623 -1.34666 -25.5471
LeftUpLeg  -22.9215 2.3947 0.735003
LeftLeg  14.8565 11.0956 2.17509
LeftFoot  7.26002 -0.0955667 1.66786
LeftToes  -21.0505 1.34695e-006 1.12385e-007
320
root  -4.18832 34.4937 -8.16681 11.671 -42.4929 -0.68686
RightUpLeg  -16.5873 -11.1809 -0.443243
RightLeg  14.1008 -4.62035 -0.847606
RightFoot  3.39484 0.0170782 -0.0365293
RightToes  -24.469 -0.110476 -0.213061
Spine  1.41152 2.66752 -0.381297
Spine1  2.70596 5.84164 -0.387822
HEad  -39.5614 0.258987 -1.45321
LeftShoulder1  -1.94126e-019 -3.10601e-018 -2.51263e-017
LeftArm  -4.37238 7.51343 -75.0417
LeftForeArm  45.286 -75.9357 -45.7189
LeftHand  -0.153221 -2.51191 2.45882
RightShoulder  -4.96962e-017 0 -2.36833e-017
RightArm  -8.52814 -3.50762 79.1644
RightForeArm  51.5773 57.0153 12.7229
RightHand  -0.878179 -1.24684 -24.3687
LeftUpLeg  -22.0097 2.19935 0.902705
LeftLeg  15.4982 11.2099 2.32681
LeftFoot  6.8129 -0.0855664 1.59899
LeftToes  -20.8178 1.34695e-006 1.12385e-007
321
root  -4.31093 34.5098 -8.00384 10.8879 -42.5076 -0.767694
RightUpLeg  -15.179 -11.1453 -0.6451
RightLeg  13.6635 -4.64216 -0.814957
RightFoot  3.40962 0.0175 -0.0366015
RightToes  -24.4908 -0.11122 -0.213532
Spine  1.22145 2.45625 -0.241185
Spine1  2.38906 5.45625 -0.144374
HEad  -37.9245 2.32878 -2.57864
LeftShoulder1  -1.94126e-019 -3.10601e-018 -2.51263e-017
LeftArm  5.9829 0.856037 -73.2389
LeftForeArm  95.1921 -79.3969 -101.054
LeftHand  0.354699 -4.59895 -3.83207
RightShoulder  -4.96962e-017 0 -2.36833e-017
RightArm  -9.41141 -5.67019 79.1825
RightForeArm  53.0285 61.1007 15.2236
RightHand  -0.765393 -1.46766 -22.454
LeftUpLeg  -20.9571 1.90925 1.02171
LeftLeg  15.7527 11.463 2.43137
LeftFoot  6.47923 -0.0796959 1.56948
LeftToes  -20.2111 1.34695e-006 1.12385e-007
322
root  -4.39913 34.5238 -7.85834 10.332 -42.4363 -0.764163
RightUpLeg  -14.0302 -10.9868 -0.862367
RightLeg  13.0776 -4.93285 -0.813877
RightFoot  3.48677 0.0195767 -0.0573091
RightToes  -24.7947 -0.112213 -0.214211
Spine  1.00878 2.02123 -0.244806
Spine1  1.98105 4.59288 -0.144705
HEad  -36.7909 4.80152 -3.25521
LeftShoulder1  -1.94126e-019 -3.10601e-018 -2.51263e-017
LeftArm  17.0068 -5.67386 -73.2003
LeftForeArm  131.6 -74.4387 -138.466
LeftHand  0.623427 -5.46842 -6.33821
RightShoulder  -4.96962e-017 0 -2.36833e-017
RightArm  -10.1156 -6.89291 79.7224
RightForeArm  50.8817 63.3457 17.2503
RightHand  -0.615523 -1.93976 -20.5044
LeftUpLeg  -20.1203 1.25667 1.08227
LeftLeg  15.7539 12.0182 2.54766
LeftFoot  6.32709 -0.0797084 1.60744
LeftToes  -20.0713 1.34695e-006 1.12385e-007
323
root  -4.46338 34.5447 -7.71609 9.95584 -42.7212 -0.743022
RightUpLeg  -13.1282 -10.8384 -1.08223
RightLeg  12.4105 -4.81358 -0.736718
RightFoot  3.67139 0.0206487 -0.0603589
RightToes  -25.0344 -0.113467 -0.216017
Spine  0.704117 1.27482 -0.458185
Spine1  1.33574 3.13373 -0.577902
HEad  -36.6037 8.11297 -3.04074
LeftShoulder1  -1.94126e-019 -3.10601e-018 -2.51263e-017
LeftArm  25.7133 -10.0578 -74.4027
LeftForeArm  140.432 -70.4335 -148.477
LeftHand  0.907311 -5.9859 -8.90051
RightShoulder  -4.96962e-017 0 -2.36833e-017
RightArm  -9.21664 -7.11754 80.8295
RightForeArm  49.1769 63.0812 17.2
RightHand  -0.61142 -1.74403 -19.2978
LeftUpLeg  -19.3621 1.0488 1.02984
LeftLeg  15.5694 12.4669 2.59975
LeftFoot  6.11398 -0.0784608 1.61755
LeftToes  -19.4656 1.34695e-006 1.12385e-007
324
root  -4.50701 34.5718 -7.57826 9.65002 -43.9397 -0.65689
RightUpLeg  -12.4611 -10.0185 -1.40723
RightLeg  11.6472 -4.47987 -0.624716
RightFoot  4.03274 0.0224959 -0.0709033
RightToes  -25.5445 -0.114994 -0.218509
Spine  0.484801 0.911066 -0.5118
Spine1  0.898769 2.37643 -0.637549
HEad  -37.6431 10.3034 -3.24558
LeftShoulder1  -1.94126e-019 -3.10601e-018 -2.51263e-017
LeftArm  31.1167 -11.0447 -76.9228
LeftForeArm  141.341 -70.3738 -148.7
LeftHand  1.05225 -6.2483 -10.1187
RightShoulder  -4.96962e-017 0 -2.36833e-017
RightArm  -7.66657 -6.86509 81.0923
RightForeArm  47.431 62.3882 16.8041
RightHand  -0.677409 -1.42922 -19.7102
LeftUpLeg  -18.5092 1.35755 0.862029
LeftLeg  15.1766 13.3124 2.6788
LeftFoot  6.01249 -0.0800979 1.68665
LeftToes  -19.315 1.34695e-006 1.12385e-007
325
root  -4.52629 34.5833 -7.45835 9.60709 -45.8113 -0.708318
RightUpLeg  -12.1984 -8.90682 -1.61627
RightLeg  11.0107 -3.82885 -0.49066
RightFoot  4.38125 0.0229872 -0.0582002
RightToes  -25.7858 -0.116805 -0.221398
Spine  0.37692 0.923802 -0.470087
Spine1  0.701706 2.34717 -0.500413
HEad  -39.7186 11.4891 -3.75586
LeftShoulder1  -1.94126e-019 -3.10601e-018 -2.51263e-017
LeftArm  32.8258 -8.86167 -78.9301
LeftForeArm  140.068 -73.0409 -143.419
LeftHand  1.14304 -6.53042 -10.7393
RightShoulder  -4.96962e-017 0 -2.36833e-017
RightArm  -6.3092 -6.9864 80.6912
RightForeArm  47.1458 62.3744 16.8327
RightHand  -0.746436 -1.04496 -19.8285
LeftUpLeg  -18.007 2.22158 0.726378
LeftLeg  15.2277 14.2315 2.87297
LeftFoot  5.62899 -0.0749407 1.68584
LeftToes  -18.6432 1.34695e-006 1.12385e-007
326
root  -4.52329 34.5867 -7.35497 9.61518 -47.8703 -0.795252
RightUpLeg  -12.0164 -7.72201 -1.81815
RightLeg  10.3058 -3.02767 -0.350089
RightFoot  4.85384 0.0242748 -0.0321316
RightToes  -26.2414 -0.118914 -0.225013
Spine  0.444958 1.08746 -0.445461
Spine1  0.84603 2.6314 -0.422865
HEad  -42.2967 12.2128 -4.23516
LeftShoulder1  -1.94126e-019 -3.10601e-018 -2.51263e-017
LeftArm  31.1849 -4.45823 -79.701
LeftForeArm  131.909 -76.8976 -130.299
LeftHand  0.951735 -6.24555 -9.12707
RightShoulder  -4.96962e-017 0 -2.36833e-017
RightArm  -4.56316 -7.53912 80.078
RightForeArm  47.3187 62.563 16.9771
RightHand  -0.76514 -1.46764 -22.4466
LeftUpLeg  -17.7072 3.32419 0.574791
LeftLeg  15.5984 15.0754 3.13956
LeftFoot  5.19536 -0.0676729 1.65309
LeftToes  -18.42 1.34695e-006 1.12385e-007
327
root  -4.49479 34.5824 -7.26218 9.62493 -49.6407 -0.875246
RightUpLeg  -11.9072 -7.17223 -2.00559
RightLeg  9.70725 -1.89792 -0.199076
RightFoot  5.34404 0.0238013 0.0366797
RightToes  -26.9456 -0.123463 -0.230186
Spine  0.556878 1.27593 -0.401564
Spine1  1.06755 2.9794 -0.325628
HEad  -44.576 12.5141 -4.55632
LeftShoulder1  -1.94126e-019 -3.10601e-018 -2.51263e-017
LeftArm  27.4285 0.76835 -79.7792
LeftForeArm  104.674 -80.0153 -98.7619
LeftHand  0.632039 -5.78904 -6.22641
RightShoulder  -4.96962e-017 0 -2.36833e-017
RightArm  -3.32251 -8.83476 79.3044
RightForeArm  48.5967 62.4351 16.73
RightHand  -0.861352 -1.55962 -25.8034
LeftUpLeg  -17.6415 4.51833 0.386616
LeftLeg  16.2363 15.538 3.41164
LeftFoot  4.67886 -0.0567168 1.5498
LeftToes  -18.0063 1.34695e-006 1.12385e-007
328
root  -4.41069 34.5697 -7.1428 9.61221 -50.5538 -0.776221
RightUpLeg  -11.948 -8.15689 -2.27365
RightLeg  9.30131 -0.116128 -0.0103551
RightFoot  5.78356 0.0172214 0.187239
RightToes  -27.8892 -0.129659 -0.237031
Spine  0.627442 1.32998 -0.267154
Spine1  1.21313 3.04906 -0.0432159
HEad  -46.047 12.2399 -4.75535
LeftShoulder1  -1.94126e-019 -3.10601e-018 -2.51263e-017
LeftArm  22.4018 5.6968 -79.965
LeftForeArm  67.1835 -78.5178 -57.1721
LeftHand  0.48682 -5.51507 -4.85858
RightShoulder  -4.96962e-017 0 -2.36833e-017
RightArm  -2.68826 -10.743 78.1829
RightForeArm  50.3964 61.874 16.0863
RightHand  -0.968167 -1.51421 -28.5845
LeftUpLeg  -18.0519 5.6687 -0.00868494
LeftLeg  17.2459 15.1291 3.60065
LeftFoot  4.02806 -0.0410772 1.32962
LeftToes  -17.3753 1.34695e-006 1.12385e-007
329
root  -4.30602 34.5503 -7.04403 9.86673 -50.7976 -0.741429
RightUpLeg  -12.1128 -9.071 -2.44015
RightLeg  8.84431 1.00552 0.0918946
RightFoot  6.14929 0.01176 0.293764
RightToes  -28.656 -0.134776 -0.242517
Spine  0.58493 1.4036 -0.0796607
Spine1  1.1462 3.1508 0.355546
HEad  -46.3611 11.3157 -4.45034
LeftShoulder1  -1.94126e-019 -3.10601e-018 -2.51263e-017
LeftArm  17.7828 9.44022 -80.4503
LeftForeArm  46.1762 -72.0029 -30.7629
LeftHand  0.340722 -5.30385 -3.38452
RightShoulder  -4.96962e-017 0 -2.36833e-017
RightArm  -3.05153 -13.0536 77.073
RightForeArm  51.0009 60.127 14.7374
RightHand  -1.04002 -1.42511 -29.9688
LeftUpLeg  -19.2392 7.86192 -0.459589
LeftLeg  18.9639 12.8736 3.48099
LeftFoot  3.13012 -0.0213464 0.942835
LeftToes  -17.1996 1.34695e-006 1.12385e-007
